<?xml version='1.0' encoding='utf-8'?>
<svg xmlns="http://www.w3.org/2000/svg" id="svg1545" version="1.1" viewBox="0 0 355.86458 264.58334" height="1000" width="1345"> <defs id="defs1539"/> <metadata id="metadata1542"> </metadata> <g id="layer1" style="display:inline" transform="translate(0,-32.416667)"> <path style="fill:#333333;stroke:none;stroke-width:0.26458332px;stroke-linecap:butt;stroke-linejoin:miter;stroke-opacity:1" d="M 250.51668,233.68913 V 126.78276 L 219.65547,108.96503 188.79426,91.147301 157.93305,73.32957 127.07184,55.511842 96.210627,37.69412 v 106.90637 z" id="path6492"/> <path style="fill:#00e0ff;fill-opacity:1;stroke:none;stroke-width:0.26458332px;stroke-linecap:butt;stroke-linejoin:miter;stroke-opacity:1" d="m 102.38287,48.38475 v 92.65219 l 141.96157,81.96155 V 130.3463 L 102.38287,48.38475" id="path6494"/> <path style="fill:#e6e6e6;stroke:none;stroke-width:0.26458332px;stroke-linecap:butt;stroke-linejoin:miter;stroke-opacity:1" d="m 96.210627,37.69412 6.172243,-3.563546 154.30605,89.088636 -6.17224,3.56355 z" id="path6496"/> <path style="fill:#c2c2c2;fill-opacity:1;stroke:none;stroke-width:0.26458332px;stroke-linecap:butt;stroke-linejoin:miter;stroke-opacity:1" d="m 250.51668,126.78276 6.17224,-3.56355 v 106.90637 l -6.17224,3.56355 z" id="path6498"/> <path style="fill:#e6e6e6;fill-opacity:1;stroke:none;stroke-width:0.26458332px;stroke-linecap:butt;stroke-linejoin:miter;stroke-opacity:1" d="M 96.210627,144.60049 3.6269933,198.05367 157.93305,287.14232 250.51668,233.68913 Z" id="path6500"/> <path style="fill:#dadada;fill-opacity:1;stroke:none;stroke-width:0.26458332px;stroke-linecap:butt;stroke-linejoin:miter;stroke-opacity:1" d="m 3.6269933,198.05367 v 7.12709 L 157.93305,294.26941 v -7.12709 z" id="path6502"/> <path style="fill:#c2c2c2;fill-opacity:1;stroke:none;stroke-width:0.26458332px;stroke-linecap:butt;stroke-linejoin:miter;stroke-opacity:1" d="m 157.93305,287.14232 v 7.12709 l 98.75587,-57.01674 v -7.12709 l -98.75587,57.01674" id="path6508"/> <path style="fill:#d4d4d4;fill-opacity:1;stroke:none;stroke-width:0.26458332px;stroke-linecap:butt;stroke-linejoin:miter;stroke-opacity:1" d="M 96.210627,151.72758 238.1722,233.68913 188.79426,262.1975 46.832691,180.23595 96.210627,151.72758" id="path6512"/> <path style="fill:#d4d4d4;fill-opacity:1;stroke:none;stroke-width:0.26499999;stroke-linecap:round;stroke-linejoin:round;stroke-miterlimit:4;stroke-dasharray:none;stroke-opacity:1" d="m 96.210627,215.8714 -18.516725,10.69064 30.861208,17.81773 18.51673,-10.69064 z" id="path6516"/> <path style="opacity:0.05;fill:#000000;stroke:none;stroke-width:0.26458332px;stroke-linecap:butt;stroke-linejoin:miter;stroke-opacity:1" d="m 256.68892,123.21921 98.75588,57.01674 -98.75588,57.01672 z" id="path6518"/> <path style="fill:#00c5e0;fill-opacity:1;stroke:none;stroke-width:0.26458332px;stroke-linecap:butt;stroke-linejoin:miter;stroke-opacity:1" d="M 102.38287,48.38475 244.34444,222.99849 102.38287,141.03694 Z" id="path6554"/> </g> </svg>